<?xml version="1.0" encoding="iso-8859-1"?>
<!-- Generator: Adobe Illustrator 19.2.1, SVG Export Plug-In . SVG Version: 6.00 Build 0)  -->
<svg version="1.1" id="Layer_1" xmlns="http://www.w3.org/2000/svg" xmlns:xlink="http://www.w3.org/1999/xlink" x="0px" y="0px"
	 viewBox="0 0 94.559 14.381" style="enable-background:new 0 0 94.559 14.381;" xml:space="preserve">
<g>
	<g>
		<linearGradient id="SVGID_1_" gradientUnits="userSpaceOnUse" x1="-0.0396" y1="9.3636" x2="11.2513" y2="9.3636">
			<stop  offset="0" style="stop-color:#1DC2EA"/>
			<stop  offset="1" style="stop-color:#177FC3"/>
		</linearGradient>
		<polygon style="fill:url(#SVGID_1_);" points="7.415,8.325 0,8.325 0,10.402 8.073,10.402 		"/>
		<polygon style="fill:#177FC3;" points="6.509,8.325 7.17,10.402 8.073,10.402 7.415,8.325 		"/>
		<path d="M24.81,8.294c-0.823-0.276-2.027-0.462-2.027-1.5c0-1.011,1.429-1.011,2.232-1.011c0.871,0,1.699,0.122,2.472,0.267
			l0.198-1.55c-1.183-0.269-2.149-0.386-3.514-0.386c-1.962,0-3.494,0.625-3.494,2.799c0,2.125,1.51,2.533,3.105,3.018
			c0.92,0.283,1.936,0.376,1.936,1.51c0,1.168-1.511,1.139-2.292,1.139c-0.779,0-1.873-0.132-2.637-0.269l-0.197,1.582
			c1.026,0.256,2.355,0.391,3.414,0.391c2.17,0,3.858-0.636,3.858-2.921C27.864,9.186,26.497,8.866,24.81,8.294z"/>
		<path d="M35.708,4.114c-3.238,0-4.404,1.38-4.404,5.082c0,3.706,1.167,5.087,4.404,5.087c3.242,0,4.409-1.441,4.409-5.087
			C40.118,5.553,38.951,4.114,35.708,4.114z M35.708,12.604c-1.79,0-2.283-0.677-2.283-3.409c0-2.73,0.493-3.401,2.283-3.401
			c1.79,0,2.291,0.783,2.291,3.401C38,11.818,37.499,12.604,35.708,12.604z"/>
		<path d="M45.819,5.816V4.251H43.76V1.452l-2.118,0.475v2.324h-1.671v1.565h1.671v5.764c0,1.825,0.853,2.702,2.858,2.702
			c0.456,0,0.453-0.069,0.911-0.146l-0.16-1.512c-0.25,0.015,0.087,0.028-0.169,0.028c-0.917,0-1.322-0.295-1.322-1.25V5.816H45.819
			z"/>
		<path d="M17.747,4.387c-0.673-0.166-1.473-0.273-2.164-0.273c-3.017,0-4.321,1.265-4.321,5.082c0,3.878,1.364,5.087,4.618,5.087
			c1.293,0,2.784-0.247,3.889-0.87c0.056-0.597,0.083-1.168,0.083-1.816V0l-2.105,0.471V4.387z M17.747,10.994
			c0,0.445-0.019,0.929-0.061,1.33c-0.427,0.223-1.172,0.332-1.806,0.332c-2.363,0-2.491-1.638-2.491-3.461
			c0-1.994,0.052-3.445,2.689-3.445c0.511,0,1.181,0.112,1.669,0.277V10.994z"/>
		<polygon points="28.368,14.147 30.486,14.147 30.486,0 28.368,0.475 		"/>
		<g>
			<polygon points="0,14.147 2.32,14.147 3.496,10.402 1.274,10.402 			"/>
			<path d="M7.802,2.608C7.446,1.549,6.756,1.066,5.867,1.066c-0.9,0-1.584,0.483-1.944,1.542L1.979,8.325h2.164l1.625-5.182
				l3.496,11.003h2.4L7.802,2.608z"/>
		</g>
	</g>
	<g>
		<g>
			<linearGradient id="SVGID_2_" gradientUnits="userSpaceOnUse" x1="47.3802" y1="9.3316" x2="96.8894" y2="9.3316">
				<stop  offset="0" style="stop-color:#1DC2EA"/>
				<stop  offset="1" style="stop-color:#177FC3"/>
			</linearGradient>
			<path style="fill:url(#SVGID_2_);" d="M49.724,14.253h-1.013V6.814c0-0.54,0.011-1.097,0.036-1.612
				c1.056-0.415,2.681-0.792,3.977-0.792c1.283,0,2.067,0.321,2.554,0.849c0.996-0.514,2.316-0.849,3.746-0.849
				c2.864,0,3.288,1.599,3.288,3.5v6.343h-1.015V8.149c0-1.999-0.502-2.836-2.647-2.836c-0.811,0-1.955,0.236-2.897,0.731
				c0.206,0.542,0.262,1.185,0.262,1.866v6.343h-1.014V8.149c0-1.999-0.497-2.836-2.65-2.836c-0.66,0-1.899,0.231-2.598,0.525
				c-0.016,0.491-0.028,1.154-0.028,1.614V14.253z"/>
			<linearGradient id="SVGID_3_" gradientUnits="userSpaceOnUse" x1="47.3814" y1="9.3956" x2="96.8827" y2="9.3956">
				<stop  offset="0" style="stop-color:#1DC2EA"/>
				<stop  offset="1" style="stop-color:#177FC3"/>
			</linearGradient>
			<path style="fill:url(#SVGID_3_);" d="M64.283,9.394c0-3.522,1.052-4.983,4.222-4.983c3.206,0,4.148,1.662,4.148,4.219
				c0,0.295-0.008,0.705-0.025,1.002c-1.114,0.189-3.403,0.403-4.769,0.456l-2.538,0.1c0.179,2.038,0.632,3.298,3.462,3.298
				c1.254,0,2.405-0.143,3.406-0.283l0.101,0.872c-1.133,0.168-2.191,0.307-4.018,0.307C65.126,14.381,64.283,12.274,64.283,9.394z
				 M68.114,9.219c0.905-0.043,2.501-0.169,3.496-0.288c0.014-0.223,0.02-0.542,0.02-0.774c0-1.719-0.796-2.864-3.125-2.864
				c-2.6,0-3.207,1.243-3.207,4.058L68.114,9.219z"/>
			<linearGradient id="SVGID_4_" gradientUnits="userSpaceOnUse" x1="47.3785" y1="7.923" x2="96.892" y2="7.923">
				<stop  offset="0" style="stop-color:#1DC2EA"/>
				<stop  offset="1" style="stop-color:#177FC3"/>
			</linearGradient>
			<path style="fill:url(#SVGID_4_);" d="M80.993,1.465h1.014v10.56c0,0.536-0.019,1.094-0.039,1.604
				c-1.066,0.549-2.372,0.751-3.578,0.751c-3.043,0-4.319-1.213-4.319-4.987c0-3.702,1.132-4.983,4.008-4.983
				c1.019,0,1.969,0.156,2.914,0.402V1.465z M78.476,5.302c-2.743,0-3.381,1.059-3.381,4.091c0,2.941,0.841,4.102,3.296,4.102
				c0.801,0,1.815-0.154,2.571-0.491c0.019-0.484,0.031-1.145,0.031-1.613V5.723C80.337,5.501,79.321,5.302,78.476,5.302z"/>
			<linearGradient id="SVGID_5_" gradientUnits="userSpaceOnUse" x1="47.4062" y1="7.7937" x2="96.8793" y2="7.7937">
				<stop  offset="0" style="stop-color:#1DC2EA"/>
				<stop  offset="1" style="stop-color:#177FC3"/>
			</linearGradient>
			<path style="fill:url(#SVGID_5_);" d="M84.122,2.192c0-0.625,0.138-0.858,0.61-0.858c0.475,0,0.616,0.233,0.616,0.858
				c0,0.616-0.124,0.833-0.616,0.833C84.243,3.025,84.122,2.808,84.122,2.192z M84.226,4.54h1.015v9.713h-1.015V4.54z"/>
			<linearGradient id="SVGID_6_" gradientUnits="userSpaceOnUse" x1="47.364" y1="9.3956" x2="96.8915" y2="9.3956">
				<stop  offset="0" style="stop-color:#1DC2EA"/>
				<stop  offset="1" style="stop-color:#177FC3"/>
			</linearGradient>
			<path style="fill:url(#SVGID_6_);" d="M87.379,4.742c1.135-0.18,2.199-0.332,3.556-0.332c2.042,0,3.624,0.506,3.624,2.901v4.715
				c0,0.536-0.02,1.094-0.041,1.604c-1.172,0.549-2.502,0.751-3.945,0.751c-2.595,0-3.838-0.701-3.838-2.851
				c0-1.673,0.7-2.741,2.372-2.992c1.234-0.185,2.844-0.247,4.441-0.3V7.639c0-1.693-0.518-2.329-2.881-2.329
				c-1.104,0-2.137,0.135-3.196,0.286L87.379,4.742z M90.646,13.502c0.939,0,1.955-0.143,2.875-0.486
				c0.018-0.493,0.028-1.15,0.028-1.614V9.084c-1.215,0.02-3,0.065-4.11,0.276c-1.14,0.219-1.683,0.716-1.683,2.138
				C87.755,13.108,88.586,13.502,90.646,13.502z"/>
		</g>
	</g>
</g>
</svg>
