<?xml version="1.0" encoding="iso-8859-1"?>
<!-- Generator: Adobe Illustrator 19.2.1, SVG Export Plug-In . SVG Version: 6.00 Build 0)  -->
<svg version="1.1" id="Layer_1" xmlns="http://www.w3.org/2000/svg" xmlns:xlink="http://www.w3.org/1999/xlink" x="0px" y="0px"
	 viewBox="0 0 99.581 15.144" style="enable-background:new 0 0 99.581 15.144;" xml:space="preserve">
<g>
	<g>
		<linearGradient id="SVGID_1_" gradientUnits="userSpaceOnUse" x1="-0.0417" y1="9.8614" x2="11.8489" y2="9.8614">
			<stop  offset="0" style="stop-color:#1DC2EA"/>
			<stop  offset="1" style="stop-color:#177FC3"/>
		</linearGradient>
		<polygon style="fill:url(#SVGID_1_);" points="7.809,8.768 0,8.768 0,10.955 8.502,10.955 		"/>
		<polygon style="fill:#177FC3;" points="6.856,8.768 7.551,10.955 8.502,10.955 7.809,8.768 		"/>
		<path style="fill:#FFFFFF;" d="M26.129,8.734c-0.867-0.291-2.135-0.486-2.135-1.58c0-1.065,1.504-1.065,2.35-1.065
			c0.918,0,1.789,0.129,2.604,0.281l0.209-1.633c-1.246-0.283-2.264-0.406-3.701-0.406c-2.066,0-3.68,0.658-3.68,2.947
			c0,2.238,1.59,2.668,3.27,3.178c0.969,0.299,2.039,0.397,2.039,1.59c0,1.23-1.59,1.199-2.414,1.199
			c-0.82,0-1.973-0.139-2.777-0.283l-0.207,1.666c1.08,0.27,2.481,0.412,3.596,0.412c2.285,0,4.062-0.67,4.062-3.076
			C29.344,9.674,27.904,9.338,26.129,8.734z"/>
		<path style="fill:#FFFFFF;" d="M37.605,4.332c-3.41,0-4.639,1.453-4.639,5.352c0,3.904,1.229,5.357,4.639,5.357
			c3.414,0,4.643-1.518,4.643-5.357C42.248,5.848,41.02,4.332,37.605,4.332z M37.605,13.273c-1.885,0-2.404-0.713-2.404-3.59
			c0-2.875,0.52-3.582,2.404-3.582c1.885,0,2.412,0.824,2.412,3.582C40.018,12.445,39.49,13.273,37.605,13.273z"/>
		<path style="fill:#FFFFFF;" d="M48.252,6.125V4.477h-2.168V1.529l-2.23,0.5v2.447h-1.76v1.648h1.76v6.07
			c0,1.922,0.898,2.846,3.01,2.846c0.48,0,0.477-0.072,0.959-0.152l-0.168-1.594c-0.264,0.016,0.092,0.029-0.178,0.029
			c-0.965,0-1.393-0.311-1.393-1.316V6.125H48.252z"/>
		<path style="fill:#FFFFFF;" d="M18.69,4.621c-0.709-0.176-1.551-0.289-2.279-0.289c-3.178,0-4.551,1.332-4.551,5.352
			c0,4.084,1.438,5.357,4.864,5.357c1.361,0,2.932-0.26,4.095-0.916c0.059-0.629,0.088-1.231,0.088-1.912V0L18.69,0.496V4.621z
			 M18.69,11.578c0,0.469-0.02,0.978-0.065,1.4c-0.449,0.234-1.234,0.35-1.902,0.35c-2.489,0-2.623-1.725-2.623-3.644
			c0-2.1,0.055-3.627,2.832-3.627c0.539,0,1.244,0.117,1.758,0.291V11.578z"/>
		<polygon style="fill:#FFFFFF;" points="29.875,14.898 32.105,14.898 32.105,0 29.875,0.5 		"/>
		<g>
			<polygon style="fill:#FFFFFF;" points="0,14.898 2.443,14.898 3.682,10.955 1.342,10.955 			"/>
			<path style="fill:#FFFFFF;" d="M8.217,2.746C7.842,1.631,7.115,1.123,6.18,1.123c-0.949,0-1.668,0.508-2.049,1.623L2.084,8.768
				h2.279l1.711-5.457l3.682,11.588h2.527L8.217,2.746z"/>
		</g>
	</g>
	<g>
		<g>
			<linearGradient id="SVGID_2_" gradientUnits="userSpaceOnUse" x1="49.8955" y1="9.8272" x2="102.0345" y2="9.8272">
				<stop  offset="0" style="stop-color:#1DC2EA"/>
				<stop  offset="1" style="stop-color:#177FC3"/>
			</linearGradient>
			<path style="fill:url(#SVGID_2_);" d="M52.364,15.01h-1.067V7.176c0-0.568,0.012-1.154,0.039-1.697
				c1.111-0.438,2.822-0.834,4.187-0.834c1.352,0,2.178,0.338,2.69,0.895c1.049-0.541,2.439-0.895,3.945-0.895
				c3.016,0,3.463,1.684,3.463,3.686v6.68h-1.068V8.582c0-2.105-0.53-2.986-2.789-2.986c-0.854,0-2.058,0.248-3.051,0.77
				c0.217,0.57,0.275,1.248,0.275,1.965v6.68h-1.068V8.582c0-2.105-0.523-2.986-2.791-2.986c-0.695,0-2,0.244-2.736,0.553
				c-0.016,0.518-0.029,1.215-0.029,1.699V15.01z"/>
			<linearGradient id="SVGID_3_" gradientUnits="userSpaceOnUse" x1="49.8969" y1="9.8945" x2="102.0271" y2="9.8945">
				<stop  offset="0" style="stop-color:#1DC2EA"/>
				<stop  offset="1" style="stop-color:#177FC3"/>
			</linearGradient>
			<path style="fill:url(#SVGID_3_);" d="M67.696,9.893c0-3.709,1.109-5.248,4.447-5.248c3.375,0,4.367,1.75,4.367,4.443
				c0,0.311-0.008,0.742-0.025,1.055c-1.174,0.199-3.584,0.424-5.023,0.481l-2.672,0.105c0.188,2.146,0.666,3.473,3.645,3.473
				c1.32,0,2.533-0.15,3.588-0.297l0.105,0.918c-1.193,0.176-2.307,0.322-4.23,0.322C68.585,15.144,67.696,12.926,67.696,9.893z
				 M71.731,9.709c0.954-0.045,2.633-0.178,3.682-0.303c0.014-0.234,0.021-0.572,0.021-0.816c0-1.81-0.838-3.016-3.291-3.016
				c-2.738,0-3.377,1.309-3.377,4.273L71.731,9.709z"/>
			<linearGradient id="SVGID_4_" gradientUnits="userSpaceOnUse" x1="49.8947" y1="8.3438" x2="102.0379" y2="8.3438">
				<stop  offset="0" style="stop-color:#1DC2EA"/>
				<stop  offset="1" style="stop-color:#177FC3"/>
			</linearGradient>
			<path style="fill:url(#SVGID_4_);" d="M85.294,1.543h1.068v11.121c0,0.564-0.021,1.152-0.041,1.689
				c-1.123,0.578-2.498,0.791-3.768,0.791c-3.205,0-4.549-1.277-4.549-5.252c0-3.898,1.191-5.248,4.221-5.248
				c1.072,0,2.072,0.164,3.068,0.424V1.543z M82.644,5.584c-2.889,0-3.561,1.115-3.561,4.309c0,3.098,0.885,4.32,3.471,4.32
				c0.844,0,1.91-0.162,2.707-0.518c0.02-0.51,0.033-1.205,0.033-1.699V6.027C84.603,5.793,83.532,5.584,82.644,5.584z"/>
			<linearGradient id="SVGID_5_" gradientUnits="userSpaceOnUse" x1="49.9232" y1="8.208" x2="102.0234" y2="8.208">
				<stop  offset="0" style="stop-color:#1DC2EA"/>
				<stop  offset="1" style="stop-color:#177FC3"/>
			</linearGradient>
			<path style="fill:url(#SVGID_5_);" d="M88.589,2.309c0-0.658,0.146-0.902,0.642-0.902c0.5,0,0.649,0.244,0.649,0.902
				c0,0.648-0.131,0.877-0.649,0.877C88.716,3.186,88.589,2.957,88.589,2.309z M88.698,4.781h1.07V15.01h-1.07V4.781z"/>
			<linearGradient id="SVGID_6_" gradientUnits="userSpaceOnUse" x1="49.8736" y1="9.8945" x2="102.0377" y2="9.8945">
				<stop  offset="0" style="stop-color:#1DC2EA"/>
				<stop  offset="1" style="stop-color:#177FC3"/>
			</linearGradient>
			<path style="fill:url(#SVGID_6_);" d="M92.019,4.994c1.195-0.189,2.316-0.35,3.746-0.35c2.15,0,3.816,0.533,3.816,3.055v4.965
				c0,0.564-0.021,1.152-0.043,1.689c-1.234,0.578-2.635,0.791-4.154,0.791c-2.733,0-4.043-0.738-4.043-3.002
				c0-1.762,0.738-2.887,2.498-3.15c1.301-0.195,2.996-0.26,4.678-0.316V8.045c0-1.783-0.545-2.453-3.036-2.453
				c-1.162,0-2.25,0.143-3.365,0.301L92.019,4.994z M95.46,14.219c0.988,0,2.059-0.15,3.027-0.512
				c0.018-0.519,0.029-1.211,0.029-1.699V9.566c-1.279,0.022-3.161,0.068-4.33,0.291c-1.199,0.231-1.771,0.754-1.771,2.252
				C92.415,13.805,93.29,14.219,95.46,14.219z"/>
		</g>
	</g>
</g>
</svg>
