<?xml version="1.0" encoding="iso-8859-1"?>
<!-- Generator: Adobe Illustrator 19.2.1, SVG Export Plug-In . SVG Version: 6.00 Build 0)  -->
<svg version="1.1" id="Layer_1" xmlns="http://www.w3.org/2000/svg" xmlns:xlink="http://www.w3.org/1999/xlink" x="0px" y="0px"
	 viewBox="0 0 25.022 25" style="enable-background:new 0 0 25.022 25;" xml:space="preserve">
<path style="fill:#808285;" d="M24.68,21.069l-0.151-0.15l0.001-0.001l-6.033-6.033c0.838-1.442,1.325-3.117,1.334-4.905
	c0.036-5.478-4.374-9.945-9.85-9.98C9.959,0,9.938,0,9.916,0C4.47,0,0.037,4.398,0,9.851c-0.034,5.478,4.378,9.946,9.853,9.98
	c0.023,0,0.042,0,0.066,0c1.821,0,3.525-0.492,4.994-1.35l6.027,6.027l0,0l0.152,0.152c0.454,0.454,1.194,0.454,1.65,0l1.939-1.94
	C25.136,22.265,25.136,21.526,24.68,21.069z M15.124,15.156c-1.394,1.385-3.245,2.147-5.205,2.147H9.872
	c-4.074-0.026-7.368-3.361-7.34-7.434C2.556,5.821,5.867,2.53,9.916,2.53h0.05c1.972,0.012,3.823,0.791,5.21,2.196
	c1.387,1.403,2.141,3.264,2.128,5.238C17.293,11.928,16.519,13.772,15.124,15.156z"/>
</svg>
